<?xml version="1.0" encoding="utf-8"?>
<!-- Generator: Adobe Illustrator 27.3.1, SVG Export Plug-In . SVG Version: 6.00 Build 0)  -->
<svg version="1.1" id="Layer_1" xmlns="http://www.w3.org/2000/svg" xmlns:xlink="http://www.w3.org/1999/xlink" x="0px" y="0px"
	 viewBox="0 0 331 331" style="enable-background:new 0 0 331 331;" xml:space="preserve">
<path d="M165.5,0C74.1,0,0,74.1,0,165.5S74.1,331,165.5,331S331,256.9,331,165.5S256.9,0,165.5,0z M113.63,210.01
	c-3.48,2.34-7.35,3.5-11.61,3.5H48.84c1.1-4.12,3.23-7.36,6.39-9.72c3.16-2.36,6.89-3.54,11.2-3.54h29.68l14.5-40.74l-20.68,21.92
	c-4.26,4.49-9.94,6.73-17.04,6.73c-4.12,0-7.6-0.92-10.44-2.75c-3.25-2.11-4.88-5.13-4.88-9.07c0-1.88,0.32-3.76,0.96-5.63
	l14.5-40.61H60.65c0.18,1.28,0.27,2.36,0.27,3.23c0,4.53-1.78,8.41-5.32,11.61c-3.55,3.21-7.84,4.81-12.88,4.81
	c-5.04,0-9.34-1.6-12.92-4.81c-3.57-3.21-5.36-7.08-5.36-11.61c0-4.76,1.88-8.75,5.63-11.96c3.57-3.02,7.74-4.54,12.5-4.54h44.66
	c3.16,0,5.73,0.93,7.7,2.78c1.97,1.85,2.95,4.36,2.95,7.52c0,1.79-0.32,3.6-0.96,5.43L82.3,173.66l40.4-51.74
	c1.05-1.37,2.75-2.57,5.08-3.57c2.34-1.01,4.4-1.51,6.18-1.51h16.15l-29.13,83.62C119.56,204.49,117.11,207.67,113.63,210.01z
	 M190.62,213.51l3.27-5.97l-56.33-26.67l2.54-11.54l71.18-28.17l-2.96,13.95l-50.91,19.99l42.46,19.99l-0.53,2.48l44.18-80.73h14.77
	l-52.9,96.67H190.62z M233.52,208.98l2.95-13.88l50.91-19.99l-42.46-19.99l2.95-13.95l59.36,28.17l-2.54,11.54L233.52,208.98z"/>
</svg>
