<?xml version="1.0" encoding="utf-8"?>
<!-- Generator: Adobe Illustrator 27.3.1, SVG Export Plug-In . SVG Version: 6.00 Build 0)  -->
<svg version="1.1" id="Layer_1" xmlns="http://www.w3.org/2000/svg" xmlns:xlink="http://www.w3.org/1999/xlink" x="0px" y="0px"
	 viewBox="0 0 331 331" style="enable-background:new 0 0 331 331;" xml:space="preserve">
<style type="text/css">
	.st0{fill:#FFBD5D;}
</style>
<path class="st0" d="M165.5,0C74.1,0,0,74.1,0,165.5S74.1,331,165.5,331S331,256.9,331,165.5S256.9,0,165.5,0z M113.6,210
	c-3.5,2.3-7.3,3.5-11.6,3.5H48.8c1.1-4.1,3.2-7.4,6.4-9.7s6.9-3.5,11.2-3.5h29.7l14.5-40.7l-20.7,21.9c-4.3,4.5-9.9,6.7-17,6.7
	c-4.1,0-7.6-0.9-10.4-2.8c-3.2-2.1-4.9-5.1-4.9-9.1c0-1.9,0.3-3.8,1-5.6L73,130.1H60.7c0.2,1.3,0.3,2.4,0.3,3.2
	c0,4.5-1.8,8.4-5.3,11.6c-3.5,3.2-7.8,4.8-12.9,4.8s-9.3-1.6-12.9-4.8s-5.4-7.1-5.4-11.6c0-4.8,1.9-8.8,5.6-12
	c3.6-3,7.7-4.5,12.5-4.5h44.7c3.2,0,5.7,0.9,7.7,2.8c2,1.8,2.9,4.4,2.9,7.5c0,1.8-0.3,3.6-1,5.4l-14.6,41.1l40.4-51.7
	c1.1-1.4,2.8-2.6,5.1-3.6c2.3-1,4.4-1.5,6.2-1.5h16.1L121,200.5C119.6,204.5,117.1,207.7,113.6,210z M190.6,213.5l3.3-6l-56.3-26.7
	l2.5-11.5l71.2-28.2l-3,13.9l-50.9,20l42.5,20l-0.5,2.5l44.2-80.7h14.8l-52.9,96.7H190.6L190.6,213.5z M233.5,209l2.9-13.9l50.9-20
	l-42.5-20l2.9-13.9l59.4,28.2l-2.5,11.5L233.5,209z"/>
</svg>
